# xmcd CD database file
#
# Track frame offsets:
#	150
#	20915
#	42245
#	63042
#	84850
#	105177
#	126654
#	148090
#	169490
#	191455
#
# Disc length: 2805 seconds
#
# Revision: 2
# Processed by: cddbd v1.4b41PL1 Copyright (c) Steve Scherf et al.
# Submitted via: Feurio! 1.52 - http://www.feurio.com
#
DISCID=860af30a
DTITLE=Salomé - Como Loca, Amame una vez más
DYEAR=1900
DGENRE=
TTITLE0=Y es por eso
TTITLE1=Ámame una vez más
TTITLE2=Como loca
TTITLE3=Como yo me entrego
TTITLE4=Mala teoría
TTITLE5=Como una ola
TTITLE6=El precio a pagar
TTITLE7=Lo siento mi amor
TTITLE8=Quiéreme siempre
TTITLE9=Desvelada
EXTD=
EXTT0=
EXTT1=
EXTT2=
EXTT3=
EXTT4=
EXTT5=
EXTT6=
EXTT7=
EXTT8=
EXTT9=
PLAYORDER=
